<?xml version="1.0" encoding="UTF-8" standalone="no"?>
<!-- Created with Inkscape (http://www.inkscape.org/) -->

<svg
   width="1080"
   height="1080"
   viewBox="0 0 285.74999 285.75"
   version="1.1"
   id="svg1"
   xml:space="preserve"
   inkscape:version="1.3 (0e150ed6c4, 2023-07-21)"
   sodipodi:docname="Logo skpassegna.svg"
   xmlns:inkscape="http://www.inkscape.org/namespaces/inkscape"
   xmlns:sodipodi="http://sodipodi.sourceforge.net/DTD/sodipodi-0.dtd"
   xmlns="http://www.w3.org/2000/svg"
   xmlns:svg="http://www.w3.org/2000/svg"
   xmlns:rdf="http://www.w3.org/1999/02/22-rdf-syntax-ns#"
   xmlns:cc="http://creativecommons.org/ns#"
   xmlns:dc="http://purl.org/dc/elements/1.1/"><title
     id="title4428">Samuel Kpassegna</title><sodipodi:namedview
     id="namedview1"
     pagecolor="#ffffff"
     bordercolor="#000000"
     borderopacity="0.25"
     inkscape:showpageshadow="2"
     inkscape:pageopacity="0.0"
     inkscape:pagecheckerboard="0"
     inkscape:deskcolor="#d1d1d1"
     inkscape:document-units="px"
     inkscape:zoom="0.4894542"
     inkscape:cx="484.21283"
     inkscape:cy="481.14819"
     inkscape:window-width="1920"
     inkscape:window-height="991"
     inkscape:window-x="-9"
     inkscape:window-y="-9"
     inkscape:window-maximized="1"
     inkscape:current-layer="layer1" /><defs
     id="defs1" /><g
     inkscape:label="Layer 1"
     inkscape:groupmode="layer"
     id="layer1"><path
       style="fill:#4e49f0;stroke:none;stroke-width:1.83218;stroke-dasharray:none"
       d="m 153.20321,149.72779 -1.93882,2.90824 h 1.45412 c 0.9576,5.71617 11.01721,12.58101 15.05954,16.61837 4.21713,4.21193 -1.15602,10.3501 3.46249,15.32656 6.51578,7.02078 18.17378,-0.16414 15.78171,-9.16378 -2.09555,-7.88407 -8.61396,-4.39348 -13.46141,-7.12172 -7.50306,-4.22288 -11.92967,-16.20208 -20.35763,-18.56767 z"
       id="path3389" /><path
       style="fill:#191919;stroke:none;stroke-width:1.83218;stroke-dasharray:none"
       d="m 127.02912,169.60071 c -2.421,1.129 -6.75067,4.45076 -7.21339,7.27059 -0.54662,3.33127 1.35505,7.06644 0.75437,10.66353 -0.67876,4.0647 -3.15438,7.41886 -6.14371,10.12793 -14.23459,12.90002 -36.564562,-4.04726 -28.757718,-21.27616 2.457737,-5.42396 7.389277,-9.58479 13.247513,-10.75666 6.977765,-1.39582 12.536255,1.59161 16.479985,-6.69275 -26.334895,-14.35042 -58.950062,9.6647 -50.550002,39.26116 1.277333,4.5005 3.367322,8.45412 6.279861,12.11763 15.068855,18.95428 46.335541,15.70238 57.366171,-5.81646 6.1139,-11.92717 3.37604,-23.27566 -1.46308,-34.89881 z"
       id="path3465" /><path
       style="fill:#191919;stroke:none;stroke-width:1.83218;stroke-dasharray:none"
       d="m 168.22907,154.57484 c 1.85444,2.6326 4.8149,6.28437 7.7482,7.72986 1.72647,0.85078 3.97,0.35954 5.82394,0.892 5.14157,1.47665 9.10547,5.24372 10.88231,10.28166 5.04662,14.30903 -13.0632,25.75301 -24.41107,16.52861 -3.56422,-2.89728 -5.53478,-7.10846 -5.63918,-11.68156 -0.0392,-1.71561 0.83542,-3.67729 0.16835,-5.33175 -1.11722,-2.77072 -4.79137,-5.59165 -7.17482,-7.27058 -3.19551,8.23875 -4.53753,17.05808 -0.0467,25.20468 8.64263,15.67843 31.13582,17.64484 42.47567,3.87727 16.46445,-19.98923 -5.71012,-50.60616 -29.82658,-40.23019 z"
       id="path3434" /><path
       style="fill:#4e49f0;stroke:none;stroke-width:1.83218;stroke-dasharray:none"
       d="m 100.85502,98.833705 c 0.05,1.400405 -1.303494,2.028585 -1.777257,3.392935 -0.929206,2.67614 -0.607111,6.72552 1.050207,9.12863 3.8893,5.63952 9.81178,1.67569 14.2988,4.6047 2.33007,1.521 3.91242,4.0908 5.89726,5.97803 4.0762,3.87574 9.09891,7.84243 12.52156,12.27921 h 0.9694 c 4.03666,-5.16325 -7.95447,-13.2634 -11.63479,-16.96432 -1.67457,-1.68395 -4.34787,-3.37665 -5.21097,-5.6665 -0.87637,-2.32503 0.68941,-5.34401 0.10956,-7.90563 -1.924,-8.49965 -10.09598,-8.104386 -16.22379,-4.847055 z"
       id="path2633" /><path
       style="fill:#4e49f0;stroke:none;stroke-width:1.83218;stroke-dasharray:none"
       d="m 177.43849,90.593709 c -10.83819,0.257226 -5.97126,15.655051 -6.30118,21.327051 -3.26985,0 -8.34661,6.8925 -11.14822,9.6941 -9.28198,9.28198 -17.61309,18.94931 -27.62822,27.14352 -2.63822,2.15854 -8.00324,10.238 -10.17882,9.69411 -1.65195,3.39037 -9.04414,11.60597 -12.88846,12.54064 -4.55491,1.10744 -10.760724,-3.61119 -14.255056,2.00053 -9.079039,1.17348 -8.225145,21.45205 0.969417,22.29645 2.262816,3.48477 10.342959,3.48858 12.602349,0 5.57189,-0.13263 8.5135,-8.90762 7.58887,-13.57175 -0.57448,-2.89788 -2.82107,-4.79513 -0.79961,-7.7119 3.49854,-5.04805 9.26491,-9.35317 13.72921,-13.55905 7.62658,-7.18513 14.77162,-14.95256 22.25382,-22.25718 3.85376,-3.76229 9.44195,-12.00249 14.42299,-13.66714 2.04988,-3.09693 6.7166,-9.0703 10.52513,-10.01687 2.08149,-0.51733 4.81587,1.2626 6.92427,1.53267 3.13897,0.40208 7.74173,-1.74738 9.99666,-3.90196 3.31259,-3.16517 6.81778,-12.433942 2.12095,-15.726759 -0.33211,-6.652164 -13.89567,-11.755542 -17.9341,-5.816462 z"
       id="path2486" /><path
       style="fill:#191919;stroke:none;stroke-width:1.83218;stroke-dasharray:none"
       d="m 118.78912,128.88544 c -1.91678,-2.41844 -4.86319,-6.27424 -7.79866,-7.40259 -2.08686,-0.80216 -4.56226,-0.1821 -6.74253,-0.68256 -4.809399,-1.10399 -9.168599,-5.28721 -10.921178,-9.84895 -5.09616,-13.264532 11.371828,-26.569966 23.038848,-18.179817 4.141,2.977934 6.39783,6.841754 7.06114,11.878647 0.22519,1.70993 -0.48369,3.74108 0.24198,5.33175 1.26541,2.77373 4.79429,5.54917 7.23805,7.27059 2.78132,-8.22152 3.87899,-16.81232 -0.70988,-24.719966 C 121.33726,77.265407 98.65863,75.066691 87.53421,89.139959 70.778836,110.33688 94.478412,139.6483 118.78912,128.88544 Z"
       id="path2363" /><path
       style="fill:#191919;stroke:none;stroke-width:1.83218;stroke-dasharray:none"
       d="m 158.53499,116.28311 c 2.36931,-1.66899 6.61387,-4.83216 7.37865,-7.7553 0.6136,-2.34509 -0.69629,-5.71053 -0.57334,-8.23999 0.29765,-6.122512 4.30867,-11.678524 9.67466,-14.408765 16.68359,-8.488708 34.89651,11.528837 23.38181,27.011105 -3.00983,4.04694 -7.70855,6.88986 -12.71829,7.60982 -2.79673,0.40192 -5.56428,-0.99046 -8.23999,-0.5872 -2.90195,0.43738 -6.11341,4.5524 -7.27058,7.03384 11.17663,3.80575 21.049,6.54 32.47527,1.30452 21.73801,-9.96033 26.26942,-39.629057 9.20753,-56.056794 -17.05185,-16.418138 -46.36639,-9.90822 -55.57584,11.613497 -4.83613,11.301619 -1.67177,21.637897 2.26012,32.475267 z"
       id="path2250" /></g><metadata
     id="metadata4428"><rdf:RDF><cc:Work
         rdf:about=""><dc:title>Samuel Kpassegna</dc:title></cc:Work></rdf:RDF></metadata></svg>
